<svg width="27" height="29" viewBox="0 0 27 29" fill="none" xmlns="http://www.w3.org/2000/svg">
<path d="M25.8036 23.5571C25.1299 21.9613 24.1522 20.5118 22.925 19.2893C21.7015 18.0632 20.2522 17.0857 18.6571 16.4107C18.6429 16.4036 18.6286 16.4 18.6143 16.3929C20.8393 14.7857 22.2857 12.1679 22.2857 9.21429C22.2857 4.32143 18.3214 0.357143 13.4286 0.357143C8.53571 0.357143 4.57143 4.32143 4.57143 9.21429C4.57143 12.1679 6.01785 14.7857 8.24285 16.3964C8.22857 16.4036 8.21428 16.4071 8.2 16.4143C6.6 17.0893 5.16428 18.0571 3.93214 19.2929C2.7061 20.5163 1.72859 21.9656 1.05357 23.5607C0.390434 25.1223 0.0327904 26.7966 -2.24559e-06 28.4929C-0.000955478 28.531 0.00573033 28.5689 0.0196614 28.6044C0.0335925 28.6399 0.0544869 28.6722 0.0811135 28.6995C0.10774 28.7268 0.13956 28.7485 0.174698 28.7633C0.209837 28.7781 0.247583 28.7857 0.285712 28.7857H2.42857C2.58571 28.7857 2.71071 28.6607 2.71428 28.5071C2.78571 25.75 3.89285 23.1679 5.85 21.2107C7.875 19.1857 10.5643 18.0714 13.4286 18.0714C16.2929 18.0714 18.9821 19.1857 21.0071 21.2107C22.9643 23.1679 24.0714 25.75 24.1429 28.5071C24.1464 28.6643 24.2714 28.7857 24.4286 28.7857H26.5714C26.6096 28.7857 26.6473 28.7781 26.6824 28.7633C26.7176 28.7485 26.7494 28.7268 26.776 28.6995C26.8027 28.6722 26.8235 28.6399 26.8375 28.6044C26.8514 28.5689 26.8581 28.531 26.8571 28.4929C26.8214 26.7857 26.4679 25.125 25.8036 23.5571ZM13.4286 15.3571C11.7893 15.3571 10.2464 14.7179 9.08571 13.5571C7.925 12.3964 7.28571 10.8536 7.28571 9.21429C7.28571 7.575 7.925 6.03214 9.08571 4.87143C10.2464 3.71071 11.7893 3.07143 13.4286 3.07143C15.0679 3.07143 16.6107 3.71071 17.7714 4.87143C18.9321 6.03214 19.5714 7.575 19.5714 9.21429C19.5714 10.8536 18.9321 12.3964 17.7714 13.5571C16.6107 14.7179 15.0679 15.3571 13.4286 15.3571Z" fill="white"/>
</svg>
