<svg width="27" height="32" viewBox="0 0 27 32" fill="none" xmlns="http://www.w3.org/2000/svg">
<path d="M18.1679 21.1857C18.1414 21.1489 18.1066 21.119 18.0662 21.0985C18.0258 21.078 17.981 21.0675 17.9357 21.0679H16.3571C16.125 21.0679 15.9893 21.3321 16.125 21.5214L18.7607 25.1679C18.875 25.325 19.1071 25.325 19.2214 25.1679L23.3 19.525C23.4357 19.3357 23.3 19.0714 23.0679 19.0714H21.4857C21.3929 19.0714 21.3071 19.1143 21.2536 19.1893L18.9857 22.325L18.1679 21.1857ZM19.7143 8.21429V6.5C19.7143 6.34286 19.5857 6.21429 19.4286 6.21429H5.71429C5.55714 6.21429 5.42857 6.34286 5.42857 6.5V8.21429C5.42857 8.37143 5.55714 8.5 5.71429 8.5H19.4286C19.5857 8.5 19.7143 8.37143 19.7143 8.21429ZM5.71429 11.3571C5.55714 11.3571 5.42857 11.4857 5.42857 11.6429V13.3571C5.42857 13.5143 5.55714 13.6429 5.71429 13.6429H12.2857C12.4429 13.6429 12.5714 13.5143 12.5714 13.3571V11.6429C12.5714 11.4857 12.4429 11.3571 12.2857 11.3571H5.71429ZM12.2857 27.7143H2.57143V2.57143H22.5714V13.1429C22.5714 13.3 22.7 13.4286 22.8571 13.4286H24.8571C25.0143 13.4286 25.1429 13.3 25.1429 13.1429V1.14286C25.1429 0.510714 24.6321 0 24 0H1.14286C0.510714 0 0 0.510714 0 1.14286V29.1429C0 29.775 0.510714 30.2857 1.14286 30.2857H12.2857C12.4429 30.2857 12.5714 30.1571 12.5714 30V28C12.5714 27.8429 12.4429 27.7143 12.2857 27.7143ZM26.6643 16.2571L19.8071 13.875C19.775 13.8643 19.7464 13.8607 19.7143 13.8607C19.6821 13.8607 19.65 13.8643 19.6214 13.875L12.7643 16.2571C12.7083 16.2762 12.6596 16.3122 12.625 16.3602C12.5904 16.4082 12.5717 16.4658 12.5714 16.525V25.4929C12.5714 25.5821 12.6107 25.6643 12.6821 25.7179L19.5393 31.0821C19.5893 31.1214 19.6536 31.1429 19.7143 31.1429C19.775 31.1429 19.8393 31.1214 19.8893 31.0821L26.7464 25.7179C26.8143 25.6643 26.8571 25.5821 26.8571 25.4929V16.525C26.8571 16.4036 26.7786 16.2964 26.6643 16.2571ZM24.6429 24.5607L19.7143 28.4143L14.7857 24.5607V17.8929L19.7143 16.1786L24.6429 17.8929V24.5607Z" fill="white"/>
</svg>
