<svg width="29" height="30" viewBox="0 0 29 30" fill="none" xmlns="http://www.w3.org/2000/svg">
<path d="M23.3714 23.7224C24.9321 23.7224 26.2071 22.4295 26.2071 20.8474C26.2071 18.9367 23.3714 15.8188 23.3714 15.8188C23.3714 15.8188 20.5357 18.9367 20.5357 20.8474C20.5357 22.4295 21.8107 23.7224 23.3714 23.7224ZM9.90357 22.1474C10.1571 22.401 10.5679 22.401 10.8179 22.1474L19.9643 13.0045C20.2179 12.751 20.2179 12.3402 19.9643 12.0902L10.8214 2.94739C10.8 2.92596 10.775 2.90453 10.75 2.88667L7.95714 0.0938135C7.89625 0.033704 7.81413 0 7.72857 0C7.64301 0 7.56089 0.033704 7.5 0.0938135L5.78571 1.8081C5.72561 1.86899 5.6919 1.95111 5.6919 2.03667C5.6919 2.12223 5.72561 2.20435 5.78571 2.26524L8.18572 4.66524L0.764286 12.0902C0.510714 12.3438 0.510714 12.7545 0.764286 13.0045L9.90357 22.1474ZM10.3643 6.12596L16.7536 12.5152H3.97857L10.3643 6.12596ZM28.2857 26.2831H0.285714C0.128571 26.2831 0 26.4117 0 26.5688V29.426C0 29.5831 0.128571 29.7117 0.285714 29.7117H28.2857C28.4429 29.7117 28.5714 29.5831 28.5714 29.426V26.5688C28.5714 26.4117 28.4429 26.2831 28.2857 26.2831Z" fill="white"/>
</svg>
